<svg xmlns="http://www.w3.org/2000/svg" xmlns:xlink="http://www.w3.org/1999/xlink" viewBox="0 0 90 180"><defs><style>.a{isolation:isolate;}.b{fill:#f1f5ff;stroke:#42566b;stroke-miterlimit:10;}.c{fill:#6d0013;}.d{fill:url(#a);}.e{fill:url(#b);}.f,.g{opacity:0.32;mix-blend-mode:screen;}.f{fill:url(#c);}.g{fill:url(#d);}.h{fill:#f49aa7;}.i{fill:url(#e);}.j{fill:url(#f);}.k{fill:url(#g);}.l{fill:url(#h);}.m{fill:url(#i);}.n{fill:url(#j);}.o{fill:url(#k);}.p{fill:url(#l);}.q{fill:url(#m);}.r{fill:url(#n);}.s{fill:url(#o);}.t{fill:url(#p);}.u{fill:url(#q);}.v{fill:url(#r);}.w{fill:url(#s);}.x{fill:url(#t);}.y{fill:url(#u);}.z{fill:url(#v);}.aa{fill:url(#w);}.ab{fill:url(#x);}.ac{fill:url(#y);}.ad{fill:url(#z);}.ae{fill:url(#aa);}.af{fill:url(#ab);}.ag{fill:url(#ac);}.ah{fill:url(#ad);}.ai{fill:url(#ae);}.aj{fill:url(#af);}.ak{fill:url(#ag);}.al{fill:url(#ah);}.am{fill:url(#ai);}.an{fill:url(#aj);}.ao{fill:url(#ak);}.ap{fill:url(#al);}.aq{fill:url(#am);}.ar{fill:url(#an);}.as{fill:url(#ao);}.at{fill:url(#ap);}.au{fill:url(#aq);}.av{fill:url(#ar);}.aw{fill:url(#as);}.ax{fill:url(#at);}.ay{fill:url(#au);}.az{fill:url(#av);}.ba{fill:url(#aw);}.bb{fill:url(#ax);}.bc{fill:url(#ay);}.bd{fill:url(#az);}.be{fill:url(#ba);}.bf{fill:url(#bb);}.bg{fill:url(#bc);}.bh{fill:url(#bd);}.bi{fill:url(#be);}.bj{fill:url(#bf);}.bk{fill:url(#bg);}.bl{fill:url(#bh);}.bm{fill:url(#bi);}.bn{fill:url(#bj);}.bo{fill:url(#bk);}.bp{fill:url(#bl);}.bq{fill:#d48e9c;opacity:0.55;mix-blend-mode:multiply;}.br{fill:#d18a77;}.bs{fill:url(#bm);}.bt{fill:url(#bn);}.bu{fill:url(#bo);}.bv{fill:url(#bp);}.bw{fill:url(#bq);}.bx{fill:url(#br);}.by{fill:url(#bs);}.bz{fill:url(#bt);}.ca{fill:url(#bu);}.cb{fill:url(#bv);}.cc{fill:url(#bw);}.cd{fill:url(#bx);}.ce{fill:url(#by);}.cf{fill:url(#bz);}.cg{fill:url(#ca);}.ch{fill:url(#cb);}.ci{fill:url(#cc);}.cj{fill:#c4684f;}.ck{fill:url(#cd);}.cl{fill:url(#ce);}.cm{fill:url(#cf);}.cn{fill:url(#cg);}.co{fill:url(#ch);}.cp{fill:url(#ci);}.cq{fill:url(#cj);}.cr{fill:url(#ck);}.cs{fill:url(#cl);}.ct{fill:url(#cm);}.cu{fill:url(#cn);}.cv{fill:url(#co);}.cw{fill:url(#cp);}.cx{fill:url(#cq);}.cy{fill:url(#cr);}.cz{fill:url(#cs);}.da{fill:url(#ct);}.db{fill:url(#cu);}.dc{fill:url(#cv);}.dd{fill:url(#cw);}.de{fill:url(#cx);}.df{fill:url(#cy);}.dg{fill:url(#cz);}.dh{fill:url(#da);}.di{fill:url(#db);}.dj{fill:url(#dc);}.dk{fill:url(#dd);}.dl{fill:url(#de);}.dm{fill:url(#df);}.dn{fill:url(#dg);}.do{fill:url(#dh);}.dp{fill:url(#di);}.dq{fill:url(#dj);}.dr{fill:url(#dk);}.ds{fill:url(#dl);}.dt{fill:url(#dm);}.du{fill:url(#dn);}.dv{fill:url(#do);}.dw{fill:url(#dp);}.dx{fill:url(#dq);}.dy{fill:url(#dr);}.dz{fill:url(#ds);}.ea{fill:url(#dt);}.eb{fill:url(#du);}.ec{fill:url(#dv);}.ed{fill:url(#dw);}.ee{fill:url(#dx);}.ef{fill:url(#dy);}.eg{fill:url(#dz);}.eh{fill:url(#ea);}.ei{fill:url(#eb);}.ej{fill:url(#ec);}.ek{fill:url(#ed);}.el{fill:url(#ee);}.em{fill:#cc6b7a;}</style><radialGradient id="a" cx="46.69" cy="51.55" r="8.07" gradientUnits="userSpaceOnUse"><stop offset="0.05" stop-color="#a72e38"/><stop offset="1" stop-color="#901c27"/></radialGradient><radialGradient id="b" cx="38.77" cy="53.84" r="8.3" xlink:href="#a"/><radialGradient id="c" cx="47.39" cy="49.3" r="7.3" gradientUnits="userSpaceOnUse"><stop offset="0" stop-color="#de868c"/><stop offset="0.38" stop-color="#dd8389"/><stop offset="0.64" stop-color="#db7a81"/><stop offset="0.87" stop-color="#d76b72"/><stop offset="1" stop-color="#d35e66"/></radialGradient><radialGradient id="d" cx="38.56" cy="49.92" r="9.23" xlink:href="#c"/><radialGradient id="e" cx="51.19" cy="56.47" r="6.64" gradientUnits="userSpaceOnUse"><stop offset="0.11" stop-color="#df6068"/><stop offset="1" stop-color="#d74b54"/></radialGradient><radialGradient id="f" cx="46.88" cy="42.55" r="15.71" gradientUnits="userSpaceOnUse"><stop offset="0" stop-color="#ffb2bd"/><stop offset="0.36" stop-color="#ffaeb9"/><stop offset="0.77" stop-color="#ffa3ab"/><stop offset="1" stop-color="#ff9aa0"/></radialGradient><radialGradient id="g" cx="42.04" cy="64.34" r="0.42" gradientUnits="userSpaceOnUse"><stop offset="0" stop-color="#fd9a45"/><stop offset="0.96" stop-color="#fc7806"/></radialGradient><radialGradient id="h" cx="43.13" cy="64.94" r="0.42" xlink:href="#g"/><radialGradient id="i" cx="42.59" cy="64.7" r="0.42" xlink:href="#g"/><radialGradient id="j" cx="43.79" cy="64.97" r="0.42" xlink:href="#g"/><radialGradient id="k" cx="41.87" cy="63.52" r="0.42" xlink:href="#g"/><radialGradient id="l" cx="42.24" cy="62.79" r="0.42" xlink:href="#g"/><radialGradient id="m" cx="42.86" cy="62.24" r="0.42" xlink:href="#g"/><radialGradient id="n" cx="43.55" cy="61.93" r="0.42" xlink:href="#g"/><radialGradient id="o" cx="44.4" cy="62.1" r="0.42" xlink:href="#g"/><radialGradient id="p" cx="45.2" cy="62.66" r="0.42" xlink:href="#g"/><radialGradient id="q" cx="43.55" cy="62.66" r="0.42" xlink:href="#g"/><radialGradient id="r" cx="44.05" cy="63.21" r="0.42" xlink:href="#g"/><radialGradient id="s" cx="44.29" cy="62.52" r="0.42" xlink:href="#g"/><radialGradient id="t" cx="43.79" cy="62.17" r="0.42" xlink:href="#g"/><radialGradient id="u" cx="44.71" cy="63.08" r="0.42" xlink:href="#g"/><radialGradient id="v" cx="44.05" cy="63.76" r="0.42" xlink:href="#g"/><radialGradient id="w" cx="43.86" cy="64.46" r="0.42" xlink:href="#g"/><radialGradient id="x" cx="44.56" cy="65.19" r="0.42" xlink:href="#g"/><radialGradient id="y" cx="45.24" cy="65.39" r="0.42" xlink:href="#g"/><radialGradient id="z" cx="45.67" cy="65.66" r="0.42" xlink:href="#g"/><radialGradient id="aa" cx="46.24" cy="65.26" r="0.42" xlink:href="#g"/><radialGradient id="ab" cx="47.02" cy="64.97" r="0.42" xlink:href="#g"/><radialGradient id="ac" cx="47.7" cy="64.84" r="0.42" xlink:href="#g"/><radialGradient id="ad" cx="47.65" cy="64.1" r="0.42" xlink:href="#g"/><radialGradient id="ae" cx="47.02" cy="63.7" r="0.42" xlink:href="#g"/><radialGradient id="af" cx="46.24" cy="63.42" r="0.42" xlink:href="#g"/><radialGradient id="ag" cx="45.67" cy="63.1" r="0.42" xlink:href="#g"/><radialGradient id="ah" cx="45.13" cy="63.64" r="0.42" xlink:href="#g"/><radialGradient id="ai" cx="44.56" cy="63.85" r="0.42" xlink:href="#g"/><radialGradient id="aj" cx="43.63" cy="63.99" r="0.42" xlink:href="#g"/><radialGradient id="ak" cx="42.39" cy="64.04" r="0.42" xlink:href="#g"/><radialGradient id="al" cx="44.56" cy="64.49" r="0.42" xlink:href="#g"/><radialGradient id="am" cx="45.12" cy="64.77" r="0.42" xlink:href="#g"/><radialGradient id="an" cx="45.89" cy="64.88" r="0.42" xlink:href="#g"/><radialGradient id="ao" cx="46.47" cy="64.55" r="0.42" xlink:href="#g"/><radialGradient id="ap" cx="47.02" cy="64.34" r="0.42" xlink:href="#g"/><radialGradient id="aq" cx="46.41" cy="63.92" r="0.42" xlink:href="#g"/><radialGradient id="ar" cx="45.81" cy="63.64" r="0.42" xlink:href="#g"/><radialGradient id="as" cx="45.24" cy="64.12" r="0.42" xlink:href="#g"/><radialGradient id="at" cx="45.89" cy="64.24" r="0.42" xlink:href="#g"/><radialGradient id="au" cx="45.56" cy="64.42" r="0.42" xlink:href="#g"/><radialGradient id="av" cx="42.86" cy="63.1" r="0.42" xlink:href="#g"/><radialGradient id="aw" cx="42.33" cy="63.21" r="0.42" xlink:href="#g"/><radialGradient id="ax" cx="42.97" cy="62.58" r="0.42" xlink:href="#g"/><radialGradient id="ay" cx="43.44" cy="63.08" r="0.42" xlink:href="#g"/><radialGradient id="az" cx="42.94" cy="63.56" r="0.42" xlink:href="#g"/><radialGradient id="ba" cx="42.59" cy="63.76" r="0.42" xlink:href="#g"/><radialGradient id="bb" cx="44.21" cy="64.66" r="0.42" xlink:href="#g"/><radialGradient id="bc" cx="44.21" cy="63.99" r="0.42" xlink:href="#g"/><radialGradient id="bd" cx="43.44" cy="64.42" r="0.42" xlink:href="#g"/><radialGradient id="be" cx="44.35" cy="63.36" r="0.42" xlink:href="#g"/><radialGradient id="bf" cx="44.7" cy="62.45" r="0.42" xlink:href="#g"/><radialGradient id="bg" cx="45.12" cy="63.21" r="0.42" xlink:href="#g"/><radialGradient id="bh" cx="46.6" cy="64.77" r="0.42" xlink:href="#g"/><radialGradient id="bi" cx="47.57" cy="64.39" r="0.42" xlink:href="#g"/><radialGradient id="bj" cx="43.13" cy="64.2" r="0.42" xlink:href="#g"/><radialGradient id="bk" cx="43.44" cy="63.52" r="0.42" xlink:href="#g"/><radialGradient id="bl" cx="44.67" cy="73.75" r="10.49" gradientTransform="translate(0 -1.42) scale(1 1.03)" xlink:href="#f"/><radialGradient id="bm" cx="33.79" cy="66.66" r="0.81" gradientTransform="translate(0 -1.42) scale(1 1.03)" gradientUnits="userSpaceOnUse"><stop offset="0" stop-color="#efc5b5"/><stop offset="0.39" stop-color="#efc5b5"/><stop offset="0.54" stop-color="#eec2b1"/><stop offset="0.7" stop-color="#ebb8a4"/><stop offset="0.86" stop-color="#e7a78f"/><stop offset="1" stop-color="#e29477"/></radialGradient><radialGradient id="bn" cx="35.05" cy="67.04" r="0.69" xlink:href="#bm"/><radialGradient id="bo" cx="33.27" cy="68.33" r="0.71" xlink:href="#bm"/><radialGradient id="bp" cx="-280.52" cy="3750.3" r="0.64" gradientTransform="matrix(-0.99, -0.15, 0.14, -1.01, -779.24, 3833.07)" xlink:href="#bm"/><radialGradient id="bq" cx="32.92" cy="69.68" r="0.81" xlink:href="#bm"/><radialGradient id="br" cx="-575.19" cy="73.93" r="0.72" gradientTransform="matrix(0.95, 0.33, -0.32, 0.97, 602.66, 189.45)" xlink:href="#bm"/><radialGradient id="bs" cx="34.45" cy="71.39" r="0.67" xlink:href="#bm"/><radialGradient id="bt" cx="32.56" cy="71.47" r="0.84" xlink:href="#bm"/><radialGradient id="bu" cx="32.94" cy="73.27" r="0.92" xlink:href="#bm"/><radialGradient id="bv" cx="1.29" cy="313.76" r="0.75" gradientTransform="translate(33.09 -296.49) scale(1.13 1.18)" xlink:href="#bm"/><radialGradient id="bw" cx="33.37" cy="75.11" r="1.09" xlink:href="#bm"/><radialGradient id="bx" cx="35.22" cy="74.9" r="0.86" xlink:href="#bm"/><radialGradient id="by" cx="36.64" cy="76.47" r="0.99" xlink:href="#bm"/><radialGradient id="bz" cx="34.4" cy="77.21" r="1.38" xlink:href="#bm"/><radialGradient id="ca" cx="38.16" cy="77.19" r="0.88" xlink:href="#bm"/><radialGradient id="cb" cx="38.39" cy="79.65" r="1.19" xlink:href="#bm"/><radialGradient id="cc" cx="36.52" cy="79.29" r="1.28" xlink:href="#bm"/><radialGradient id="cd" cx="45.52" cy="86.34" r="3.08" xlink:href="#bm"/><radialGradient id="ce" cx="55.34" cy="64.45" r="0.83" xlink:href="#bm"/><radialGradient id="cf" cx="54.02" cy="65.83" r="0.72" xlink:href="#bm"/><radialGradient id="cg" cx="55.48" cy="66.14" r="0.71" xlink:href="#bm"/><radialGradient id="ch" cx="54.01" cy="67.51" r="0.69" xlink:href="#bm"/><radialGradient id="ci" cx="55.28" cy="67.56" r="0.78" xlink:href="#bm"/><radialGradient id="cj" cx="53.76" cy="69.04" r="0.66" xlink:href="#bm"/><radialGradient id="ck" cx="55.33" cy="69.32" r="0.79" xlink:href="#bm"/><radialGradient id="cl" cx="54.17" cy="70.72" r="0.6" xlink:href="#bm"/><radialGradient id="cm" cx="55.74" cy="70.84" r="0.94" xlink:href="#bm"/><radialGradient id="cn" cx="54.42" cy="72.19" r="0.72" xlink:href="#bm"/><radialGradient id="co" cx="54.76" cy="73.8" r="0.75" xlink:href="#bm"/><radialGradient id="cp" cx="56.3" cy="73.12" r="0.75" xlink:href="#bm"/><radialGradient id="cq" cx="54.55" cy="75.1" r="0.68" xlink:href="#bm"/><radialGradient id="cr" cx="56.38" cy="75.08" r="0.81" xlink:href="#bm"/><radialGradient id="cs" cx="54.37" cy="76.54" r="0.71" xlink:href="#bm"/><radialGradient id="ct" cx="55.86" cy="77" r="0.87" xlink:href="#bm"/><radialGradient id="cu" cx="53.77" cy="77.88" r="0.67" xlink:href="#bm"/><radialGradient id="cv" cx="55.01" cy="78.67" r="0.9" xlink:href="#bm"/><radialGradient id="cw" cx="53" cy="79.54" r="0.82" xlink:href="#bm"/><radialGradient id="cx" cx="54.6" cy="80.26" r="1.04" xlink:href="#bm"/><radialGradient id="cy" cx="52.32" cy="81.2" r="0.85" xlink:href="#bm"/><radialGradient id="cz" cx="53.76" cy="82.31" r="0.99" xlink:href="#bm"/><radialGradient id="da" cx="51.26" cy="82.4" r="0.74" xlink:href="#bm"/><radialGradient id="db" cx="51.77" cy="84.04" r="1.15" xlink:href="#bm"/><radialGradient id="dc" cx="-17.46" cy="119.62" r="0.72" gradientTransform="translate(68.9 -42.01) scale(1.11 1.05)" xlink:href="#bm"/><radialGradient id="dd" cx="49.52" cy="84.7" r="1.06" xlink:href="#bm"/><radialGradient id="de" cx="-60.22" cy="262.61" r="0.8" gradientTransform="translate(119.56 -218.45) scale(1.19 1.15)" xlink:href="#bm"/><radialGradient id="df" cx="47.07" cy="83.33" r="1.11" xlink:href="#bm"/><radialGradient id="dg" cx="55.88" cy="62.63" r="0.84" xlink:href="#bm"/><radialGradient id="dh" cx="35.73" cy="64.22" r="0.55" xlink:href="#bm"/><radialGradient id="di" cx="37.21" cy="64.23" r="0.55" xlink:href="#bm"/><radialGradient id="dj" cx="39" cy="64.75" r="0.7" xlink:href="#bm"/><radialGradient id="dk" cx="40.75" cy="65.34" r="0.57" xlink:href="#bm"/><radialGradient id="dl" cx="42.45" cy="65.75" r="0.66" xlink:href="#bm"/><radialGradient id="dm" cx="45.09" cy="65.82" r="0.84" xlink:href="#bm"/><radialGradient id="dn" cx="47.01" cy="65.71" r="0.58" xlink:href="#bm"/><radialGradient id="do" cx="49.04" cy="65.15" r="0.67" xlink:href="#bm"/><radialGradient id="dp" cx="50.79" cy="64.47" r="0.5" xlink:href="#bm"/><radialGradient id="dq" cx="52.2" cy="63.73" r="0.56" xlink:href="#bm"/><radialGradient id="dr" cx="53.32" cy="62.83" r="0.53" xlink:href="#bm"/><radialGradient id="ds" cx="54.64" cy="61.81" r="0.6" xlink:href="#bm"/><radialGradient id="dt" cx="55.94" cy="60.92" r="0.7" xlink:href="#bm"/><radialGradient id="du" cx="34.95" cy="65.27" r="0.71" xlink:href="#bm"/><radialGradient id="dv" cx="36.23" cy="65.62" r="0.74" xlink:href="#bm"/><radialGradient id="dw" cx="37.78" cy="66.22" r="0.82" xlink:href="#bm"/><radialGradient id="dx" cx="40" cy="66.78" r="0.87" xlink:href="#bm"/><radialGradient id="dy" cx="42.28" cy="67.04" r="0.85" xlink:href="#bm"/><radialGradient id="dz" cx="44.87" cy="67.26" r="0.9" xlink:href="#bm"/><radialGradient id="ea" cx="47.24" cy="67.03" r="0.79" xlink:href="#bm"/><radialGradient id="eb" cx="49.35" cy="66.46" r="0.7" xlink:href="#bm"/><radialGradient id="ec" cx="51.23" cy="65.54" r="0.66" xlink:href="#bm"/><radialGradient id="ed" cx="52.57" cy="64.75" r="0.57" xlink:href="#bm"/><radialGradient id="ee" cx="53.93" cy="63.87" r="0.67" xlink:href="#bm"/></defs><g class="a"><path class="b" d="M82.54,89.89a13.7,13.7,0,0,1-3.37-3.12,9.18,9.18,0,0,0-3.8-2.6,3,3,0,0,1-.77-.36c-.47-.33-.55-1-.68-1.56s-.23-1.06-.37-1.58A21.67,21.67,0,0,1,73,75.16c0-6.61-1.36-12.32-2.08-13.85s-1.18-2.72-2-9,.79-5.23,0-12.77-6.58-8.88-9.18-9.48a41.23,41.23,0,0,1-8.93-3.58c-.51-.39-.59-2.36-.54-4.26A12.56,12.56,0,0,0,51.74,18c.13.16.39.46.62.48s.8-1,1-1.55a8.6,8.6,0,0,0,.12-3.1c-.22-.7-.74-.15-.92.12a.92.92,0,0,1-.33.27c0-.92.09-1.84.23-2.75a10.87,10.87,0,0,0-.47-5.27c-1.29-3.66-6.32-3.92-7-3.94h0c-.69,0-5.72.28-7,3.94a10.87,10.87,0,0,0-.47,5.27c.14.91.18,1.83.23,2.75a.92.92,0,0,1-.33-.27c-.17-.27-.7-.82-.92-.12a8.6,8.6,0,0,0,.12,3.1c.15.55.63,1.57,1,1.55s.49-.32.62-.48a12.56,12.56,0,0,0,1.49,4.23c0,1.9,0,3.87-.54,4.26a41.23,41.23,0,0,1-8.93,3.58c-2.6.6-8.4,1.93-9.18,9.48s.84,6.52,0,12.77-1.3,7.43-2,9-2.08,7.24-2.08,13.85a21.2,21.2,0,0,1-.54,5.51c-.14.52-.24,1-.37,1.58s-.21,1.23-.68,1.56a3,3,0,0,1-.77.36,9.18,9.18,0,0,0-3.8,2.6,13.7,13.7,0,0,1-3.37,3.12c-.77.55-.52,1.92,1.25,1.52s2.94-2.65,3.38-2.52-.48,3.46-.85,4.58-.72,2.47-.95,3.16a3.22,3.22,0,0,0,0,2.65c.52.7,1.26-.2,1.77-2s1.56-5,1.56-5-.58,2.72-1,4.36-1.53,3.76-.58,4.55c.49.42,1.08-.11,1.41-.91s.74-2.14.77-2.27c.32-1.35,1.23-5,1.23-5s-.59,3.1-.94,4.57a15.68,15.68,0,0,0-.65,2.55.71.71,0,0,0,1,.71c.48-.15.91-1.24,1.2-2.4s.73-3.36,1-4.38c.1-.38.27-.76.26-.47,0,.62-.51,2.34-.67,3.2-.2,1.09-.17,1.86.35,1.92.32,0,.6,0,.88-.52a15.09,15.09,0,0,0,.85-3c.37-1.65.88-3.16,1.09-4.65s.52-4.51.75-5.5a22.89,22.89,0,0,1,.69-2.29h0c.9-2.79,3.07-9.49,4.48-13.58C27.35,63.84,26.71,62,27,59.77c.17-1.47,1.72-5.15,2.84-9.09,1.69,3.54,3.42,8.75,2.38,13.89-1.83,9-1.26,6.4-1.83,9a75.63,75.63,0,0,0-1.55,8.71c-.64,6.62-1.14,13.33-.09,19.88.39,2.4,1.78,16.24,1.69,16.72-.33,1.8-1.39,5.57-1.8,7.71s-.21,5.33,0,11.15.9,10.33,1.15,13.53c.21,2.74-.2,9.76-.31,11.69a3.86,3.86,0,0,1-.2,1,17.82,17.82,0,0,1-1.05,2.56,34,34,0,0,1-3.26,5c-.61.62-1.6,2.1-.67,2.52a.46.46,0,0,0,.49,0,1,1,0,0,0,.38,1.13,1.13,1.13,0,0,0,.54.09,1,1,0,0,0,1.38.82s.24.83.95.86a1.48,1.48,0,0,0,.69-.08c.2-.08.42-.31.66-.88a1,1,0,0,0,.72,1.09,2,2,0,0,0,2.54-1.23c.55-1.17.49-1.38.95-2.39s.24-3.66.58-4.73,1.32-1.44,1.41-2.33a11.51,11.51,0,0,0,0-2.52s.07-4,.07-4l.11-1.79a67,67,0,0,1,1-8.24c.88-4.57,2.09-12.13,2.46-16.72a109.43,109.43,0,0,1,1.39-12.3c0-.05,0-.11.06-.19a58.72,58.72,0,0,0,2.53-11.57c.14-1.24.27-2.61.38-4.09.44-6.46.24-10,1.4-10.15,1.15.17,1,3.69,1.4,10.15.1,1.48.23,2.85.37,4.09a58.72,58.72,0,0,0,2.53,11.57,1.3,1.3,0,0,1,.06.19,109.43,109.43,0,0,1,1.39,12.3c.37,4.59,1.58,12.15,2.46,16.72a67,67,0,0,1,1,8.24l.11,1.79s0,4,.07,4a11.51,11.51,0,0,0,0,2.52c.09.89,1.07,1.26,1.41,2.33s.12,3.71.58,4.73.4,1.22,1,2.39a2,2,0,0,0,2.54,1.23,1,1,0,0,0,.72-1.09c.24.57.46.8.66.88a1.48,1.48,0,0,0,.69.08c.72,0,1-.86,1-.86a1,1,0,0,0,1.38-.82,1.13,1.13,0,0,0,.54-.09,1,1,0,0,0,.38-1.13.46.46,0,0,0,.49,0c.93-.42-.06-1.9-.67-2.52a34,34,0,0,1-3.26-5A20.48,20.48,0,0,1,60.62,164a4.33,4.33,0,0,1-.2-1c-.11-1.93-.52-8.95-.31-11.69.25-3.2,1-7.71,1.15-13.53s.37-9,0-11.15-1.47-5.91-1.8-7.71c-.09-.48,1.3-14.32,1.69-16.72,1-6.55.55-13.26-.09-19.88a73.54,73.54,0,0,0-1.55-8.71c-.57-2.62,0,0-1.83-9-1-5.14.69-10.35,2.38-13.89,1.12,3.94,2.67,7.62,2.84,9.09.28,2.26-.36,4.07,1.45,9.32,1.41,4.09,3.58,10.79,4.48,13.58h0A22.89,22.89,0,0,1,69.45,85c.23,1,.54,4,.75,5.5s.72,3,1.09,4.65a15.09,15.09,0,0,0,.85,3c.28.48.56.56.89.52.51-.06.54-.83.34-1.92-.15-.86-.64-2.58-.67-3.2,0-.29.16.09.26.47.27,1,.71,3.19,1,4.38s.72,2.25,1.21,2.4a.7.7,0,0,0,1-.71,15.68,15.68,0,0,0-.65-2.55c-.35-1.47-.94-4.57-.94-4.57s.91,3.69,1.23,5c0,.13.44,1.47.77,2.27s.92,1.33,1.42.91c.94-.79-.17-2.9-.59-4.55s-1-4.36-1-4.36,1.05,3.22,1.56,5,1.25,2.71,1.77,2a3.22,3.22,0,0,0,0-2.65c-.23-.69-.58-2-.95-3.16s-1.28-4.44-.85-4.58,1.61,2.12,3.38,2.52S83.31,90.44,82.54,89.89Z"/><path class="c" d="M45.42,52.27s-3.05-.36-4.2.71-.06,8-.06,8a4.85,4.85,0,0,0,4.89-1.49C48.32,57.08,46.21,52.22,45.42,52.27Z"/><path class="d" d="M43.43,59.5a1.26,1.26,0,0,0,0,.79c.2.41.76.45,1.21.38,2-.33,7.07-4.24,7.84-4.85a4,4,0,0,0,1-.93,1.22,1.22,0,0,0,.14-1.24,1.62,1.62,0,0,0-1-.64,24.79,24.79,0,0,0-6.87-1.32,4.73,4.73,0,0,0-2.27.29.8.8,0,0,0-.32.22.69.69,0,0,0,0,.72,4.18,4.18,0,0,0,.45.57,3.85,3.85,0,0,1,.61,2.95C44,57.48,43.66,58.48,43.43,59.5Z"/><path class="e" d="M33.69,56.87c-.56,1.41-.17,3.7.26,5.14.14.47.35.92.49,1.39A5.44,5.44,0,0,1,34.67,65a1.27,1.27,0,0,0,0,.44.56.56,0,0,0,.58.31,1.27,1.27,0,0,0,.63-.27c1-.7,1.79-1.78,2.82-2.52a12.91,12.91,0,0,1,4.45-1.66c.15,0,.33-.11.35-.27s-.08-.23-.16-.34a1.79,1.79,0,0,1-.11-1.39c.18-.84.45-1.66.58-2.5a4.05,4.05,0,0,0-.27-2.49c-.22-.42-1-1.86-1.43-1.95-1.31-.27-4.12.56-4.72.81A7.22,7.22,0,0,0,33.69,56.87Z"/><path class="f" d="M46.49,58.16a20.84,20.84,0,0,0,4.59-2.37c.57-.39,1.2-1,1.08-1.64s-.73-.85-1.29-1a20.69,20.69,0,0,0-6-.84c-.2,0-.94,0-.93.33,0,.11.13.22.19.3a4.17,4.17,0,0,1,.29.44,4,4,0,0,1,.35,1,5.22,5.22,0,0,1,0,1.76,6.7,6.7,0,0,0-.27,1.71.74.74,0,0,0,.12.36.6.6,0,0,0,.43.22A3.25,3.25,0,0,0,46.49,58.16Z"/><path class="g" d="M40.55,52.9h0a12.76,12.76,0,0,0-2.28.6,7.09,7.09,0,0,0-2.93,1.69,5.26,5.26,0,0,0-1.19,3.38c-.08,1.12.57,3.7,1.41,3.93a2.59,2.59,0,0,0,1.93-.63c.59-.38,1.13-.85,1.7-1.28.81-.61,1.71-1.12,2.5-1.79a4.9,4.9,0,0,0,1.73-2.61,3.18,3.18,0,0,0-1.11-3.12A2.4,2.4,0,0,0,40.55,52.9Z"/><path class="h" d="M45.51,64.75A12.7,12.7,0,0,1,48,64.48a13.9,13.9,0,0,0-3.08.27,7.38,7.38,0,0,1-1.6.35A5.68,5.68,0,0,0,45.51,64.75Z"/><path class="h" d="M48.3,63.48a22.54,22.54,0,0,1-4.66-.82,3.3,3.3,0,0,0-1-.08,4,4,0,0,1,.5.08A19.66,19.66,0,0,0,48.3,63.48Z"/><path class="i" d="M55,52.86a2.89,2.89,0,0,0-3.33-.62c-.45.23-.84.57-1.27.82a1.73,1.73,0,0,1-1.44.23,8.29,8.29,0,0,1-2.39-2.73c-1.31-2.92-1.84-13.33-1.08-29.19H44.36s-1.27,22,.73,28.77a6.45,6.45,0,0,0,1.67,2.77c.26.32.5.65.73,1a3.54,3.54,0,0,1,.74,3.27,2.74,2.74,0,0,1-1.43,1.31,10.64,10.64,0,0,1-1.91.54,8.88,8.88,0,0,0-4,1.7,3.38,3.38,0,0,0,1.54,6.17,5.93,5.93,0,0,0,1.19.12,3.85,3.85,0,0,1,1.16-2,4.59,4.59,0,0,1-1.76.19,1.8,1.8,0,0,1-1.59-1.39.89.89,0,0,1,.21-.74,1.17,1.17,0,0,1,.6-.26,2.91,2.91,0,0,1,1.21.05c2.06.51,4.23,1.08,6.32.64A7.4,7.4,0,0,0,54,60.88a8.63,8.63,0,0,0,1.82-4.68A4.41,4.41,0,0,0,55,52.86Z"/><path class="j" d="M53.16,54.5a1.91,1.91,0,0,0-2-.7,7,7,0,0,1-1.89.22,6.46,6.46,0,0,1-2-1.74A5.49,5.49,0,0,1,45.88,50a41.85,41.85,0,0,1-1-8.48c-.44-7.75.25-20.17.25-20.17h-.53S44,33.89,44.41,41.66a42.16,42.16,0,0,0,1,8.36A6.6,6.6,0,0,0,47,52.7c.32.34.67.65,1,1a11,11,0,0,1,1.18,1.94,2.68,2.68,0,0,1-1.24,3.59c-1.55.92-3.41.65-5.06,1.25a4.39,4.39,0,0,0-.58.24,3.45,3.45,0,0,0-2.08,2.45c0,.13,0,.27,0,.41a2.11,2.11,0,0,1,.89.14,1.46,1.46,0,0,1,.71-1.58A8.16,8.16,0,0,1,44.48,62a21.25,21.25,0,0,0,3.09.28c2,0,3.65-.46,4.7-2.28C53.11,58.59,54.23,56.08,53.16,54.5Z"/><circle class="k" cx="42.04" cy="64.34" r="0.42"/><circle class="l" cx="43.13" cy="64.94" r="0.42"/><circle class="m" cx="42.59" cy="64.7" r="0.42"/><circle class="n" cx="43.79" cy="64.97" r="0.42"/><circle class="o" cx="41.87" cy="63.52" r="0.42"/><circle class="p" cx="42.24" cy="62.79" r="0.42"/><circle class="q" cx="42.86" cy="62.24" r="0.42"/><circle class="r" cx="43.55" cy="61.93" r="0.42"/><circle class="s" cx="44.4" cy="62.1" r="0.42"/><circle class="t" cx="45.2" cy="62.66" r="0.42"/><circle class="u" cx="43.55" cy="62.66" r="0.42"/><circle class="v" cx="44.05" cy="63.21" r="0.42"/><circle class="w" cx="44.29" cy="62.52" r="0.42"/><circle class="x" cx="43.79" cy="62.17" r="0.42"/><circle class="y" cx="44.71" cy="63.08" r="0.42"/><circle class="z" cx="44.05" cy="63.76" r="0.42"/><circle class="aa" cx="43.86" cy="64.46" r="0.42"/><circle class="ab" cx="44.56" cy="65.19" r="0.42"/><path class="ac" d="M45.67,65.39a.43.43,0,1,1-.85,0,.43.43,0,0,1,.85,0Z"/><circle class="ad" cx="45.67" cy="65.66" r="0.42"/><circle class="ae" cx="46.24" cy="65.26" r="0.42"/><circle class="af" cx="47.02" cy="64.97" r="0.42"/><path class="ag" d="M48.12,64.84a.43.43,0,1,1-.42-.42A.42.42,0,0,1,48.12,64.84Z"/><circle class="ah" cx="47.65" cy="64.1" r="0.42"/><path class="ai" d="M47.44,63.7a.42.42,0,0,1-.42.42.43.43,0,0,1,0-.85A.42.42,0,0,1,47.44,63.7Z"/><circle class="aj" cx="46.24" cy="63.42" r="0.42"/><circle class="ak" cx="45.67" cy="63.1" r="0.42"/><circle class="al" cx="45.13" cy="63.64" r="0.42"/><circle class="am" cx="44.56" cy="63.85" r="0.42"/><circle class="an" cx="43.63" cy="63.99" r="0.42"/><circle class="ao" cx="42.39" cy="64.04" r="0.42"/><circle class="ap" cx="44.56" cy="64.49" r="0.42"/><circle class="aq" cx="45.12" cy="64.77" r="0.42"/><path class="ar" d="M46.31,64.88a.43.43,0,1,1-.42-.42A.42.42,0,0,1,46.31,64.88Z"/><circle class="as" cx="46.47" cy="64.55" r="0.42"/><circle class="at" cx="47.02" cy="64.34" r="0.42"/><circle class="au" cx="46.41" cy="63.92" r="0.42"/><circle class="av" cx="45.81" cy="63.64" r="0.42"/><circle class="aw" cx="45.24" cy="64.12" r="0.42"/><circle class="ax" cx="45.89" cy="64.24" r="0.42"/><circle class="ay" cx="45.56" cy="64.42" r="0.42"/><circle class="az" cx="42.86" cy="63.1" r="0.42"/><circle class="ba" cx="42.33" cy="63.21" r="0.42"/><circle class="bb" cx="42.97" cy="62.58" r="0.42"/><circle class="bc" cx="43.44" cy="63.08" r="0.42"/><circle class="bd" cx="42.94" cy="63.56" r="0.42"/><circle class="be" cx="42.59" cy="63.76" r="0.42"/><circle class="bf" cx="44.21" cy="64.66" r="0.42"/><circle class="bg" cx="44.21" cy="63.99" r="0.42"/><circle class="bh" cx="43.44" cy="64.42" r="0.42"/><circle class="bi" cx="44.35" cy="63.36" r="0.42"/><circle class="bj" cx="44.7" cy="62.45" r="0.42"/><circle class="bk" cx="45.12" cy="63.21" r="0.42"/><circle class="bl" cx="46.6" cy="64.77" r="0.42"/><circle class="bm" cx="47.57" cy="64.39" r="0.42"/><circle class="bn" cx="43.13" cy="64.2" r="0.42"/><circle class="bo" cx="43.44" cy="63.52" r="0.42"/><path class="bp" d="M55,74.22a23.27,23.27,0,0,1-.33-5.58,14,14,0,0,1,.47-3.35c.09-.27.25-.61.4-1a4.36,4.36,0,0,0-1.78-.47c-.75,0-4.09,1.91-4.75,2-2.95.57-3-.64-5.79-.32a24.69,24.69,0,0,1-7.45-.11c-.42.41-.83.82-1.21,1.27a6.84,6.84,0,0,0-.84,1.13c.26.63-.18,1.33.19,2,.15.25.41.44.56.7a1.7,1.7,0,0,1,.14.8A8.24,8.24,0,0,0,34.93,74c.18.53.47,1,.66,1.6a2,2,0,0,1,0,1.62,1.85,1.85,0,0,1-.65.59c1.12,1.36,2,3,3.66,4.07,1.5,1,.56.63,2,.25.85-.23,1.81-1.3,2.72-1.31s1.45,1,2.22,1.66,1.81,1.26,2.52,1.88l.1.09c.93-.08,1.77-.45,1.91-1.25,0-.27.42,0,.55-.25.38-.62,1.35-.72,2.12-1s.75-1.27.56-2.13-.43-1.78.12-2.29c.36-.34,1-.45,1.29-.86s0-.93,0-1.43S54.65,74.4,55,74.22Z"/><path class="bq" d="M49.76,68.29l.33,1.78a.89.89,0,0,0,.19.46c.12.13.36.21.47.11a1.68,1.68,0,0,0-.07-1,3.11,3.11,0,0,0,2.24-1,5,5,0,0,1,.67-.8,1.2,1.2,0,0,1,1.16-.17c.08,0,.13.09.2.13A3.55,3.55,0,0,1,55,67.1a1.51,1.51,0,0,0-.53-.21L54.3,66l1.09.11a1.47,1.47,0,0,0-.41-1,.78.78,0,0,0-.44-.29c-.18,0-.9.17-1.18,0a2.43,2.43,0,0,1-.32.24l.16.21a1.43,1.43,0,0,0,.49.52.32.32,0,0,0,.09,0,4.13,4.13,0,0,1-2.05,2.78c-.43.24-1.14.36-1.49-.08C50.1,68.44,49.89,68.17,49.76,68.29Z"/><path class="bq" d="M55.54,74.24c0-.09-.06-.18-.09-.27a1.89,1.89,0,0,1-1.32-1.19,1.82,1.82,0,0,1,.42-1.64A1.37,1.37,0,0,0,55,70.07c-.1-.42-.8-.84-1.09-.56.31.79-.29,1.45-1,1.81a5.22,5.22,0,0,1-2.16.55,2.46,2.46,0,0,1-1.29-.24,2.88,2.88,0,0,1-1.15-1.54c-.16-.41-.33-.81-.5-1.21a.44.44,0,0,1,.28-.59,3,3,0,0,0,1.75-1.14,7.69,7.69,0,0,0,.61-1.26l0,0a4.18,4.18,0,0,1-.81-.09,4.28,4.28,0,0,1-2.17,1.91l-.1,0A8.29,8.29,0,0,0,48,65.82a4.24,4.24,0,0,1-.89.13l0,.14a6,6,0,0,1-1.66,3.23,2,2,0,0,1-1.79.66.72.72,0,0,1-.3-.13.58.58,0,0,1-.17-.35c-.1-.68.44-1.34,0-2S42,67,41.36,67a11.23,11.23,0,0,1-4.58.07.72.72,0,0,1-.46-.29.42.42,0,0,1,.27-.57,1.47,1.47,0,0,1,.75,0c1.72.38,3.68.94,5.23.21a1.81,1.81,0,0,1,1.19-.32,4.16,4.16,0,0,1-1.11-.57,7,7,0,0,0-.92.29,5.23,5.23,0,0,1-1.7.46,10.5,10.5,0,0,1-2.45-.52,2,2,0,0,0-2.12.53.74.74,0,0,0-.11.48.89.89,0,0,0,.36.52,0,0,0,0,0,0,0,.71.71,0,0,0-.21.46,2,2,0,0,0,.08,1.37,1.71,1.71,0,0,0,1.2.73,6.4,6.4,0,0,0,2.13-.19,10.3,10.3,0,0,1,3.54,0,1.32,1.32,0,0,0,.37.52.75.75,0,0,0-.42.34,2.66,2.66,0,0,0-.4.91c-.32,1.46.51,3.13,1.08,4.83h0c-.14.21,0,.55.26.76a6.83,6.83,0,0,1,.24,1.47c-.32,0-.63.06-.93.1l-.56.08c-.07-.17-.16-.33-.22-.5a5.09,5.09,0,0,1-.21-1,3,3,0,0,0-.54-1.3,3.14,3.14,0,0,0,0-.75c-.09-.91-.52-1.82-.55-2.7,0-.49.09-1,0-1.44a.45.45,0,0,0-.42-.41c-.38,0-.84-.58-1.13,0a3.88,3.88,0,0,0,.62,1.87,6.32,6.32,0,0,1,.59,2.85,1.9,1.9,0,0,0-.28-.1,3.41,3.41,0,0,0-.88-.13c0-.3-.64-5-4.4-4.42s.2.48.2.48a3.62,3.62,0,0,1,2.67,1.52.77.77,0,0,0-.24.12.73.73,0,0,1-.61.1,1.08,1.08,0,0,0-.28-.11c-.1,0-.22,0-.23.12s.07.16.15.21a.86.86,0,0,1,.23.13.57.57,0,0,1,.14.36.32.32,0,0,0,.35-.07,2.37,2.37,0,0,0,.23-.3.51.51,0,0,1,.28-.22h.2a6.06,6.06,0,0,1,.81,2.1,2.78,2.78,0,0,0-1.08.33,1,1,0,0,0,.17.56.38.38,0,0,0,.25.2.31.31,0,0,0,.17,0,2.68,2.68,0,0,1,1.18-.33,1.58,1.58,0,0,1,.87.28c0,.05,0,.1,0,.15a1.09,1.09,0,0,0,0,.54,1.41,1.41,0,0,0,.34.48.35.35,0,0,0,.32-.19,4,4,0,0,1,.08.48,2.83,2.83,0,0,0,.3,1.19,1.34,1.34,0,0,0,.11.14,15.79,15.79,0,0,0-1.58.35c-.08-.16,0-.32.11-.44a1.34,1.34,0,0,0,0-1.34c-.19-.17-.44,0-.5.22s-.08.49-.27.59-.45,0-.65-.18a1.42,1.42,0,0,0-.63-.35.78.78,0,0,0-.54.21c-.13.1-.28.24-.24.43a.55.55,0,0,0,.12.21c.34.36,1,.31,1.19.76,0,.09.06.19.1.28a.92.92,0,0,0,.31.34.34.34,0,0,0,.09.19.63.63,0,0,0,.3.16,7.32,7.32,0,0,0,3.88-.44l.22-.06a1.16,1.16,0,0,1-.24.89,2.51,2.51,0,0,1-1.28.61l-1.51.4a2.33,2.33,0,0,1-1.76,0A3.56,3.56,0,0,1,37,80c-.21-.42-.41-.84-.61-1.26a.3.3,0,0,0-.09-.13.17.17,0,0,0-.17,0,.59.59,0,0,0-.2.66,2.15,2.15,0,0,0,.37.74,6.18,6.18,0,0,0,2.57,2.5,4.33,4.33,0,0,0,2.22.15,2.76,2.76,0,0,0,2.38-1.32s0,0,0-.07a4,4,0,0,1,1,.63c.28.3.44.71.75,1a2,2,0,0,0,1.21.45c.25,0,.54,0,.62-.22a1.07,1.07,0,0,0,0-.4,1,1,0,0,1,.47-.91,2.52,2.52,0,0,1,1-.34,1,1,0,0,0,.28-.11l.48.24a8.41,8.41,0,0,0,2.59.93,1.65,1.65,0,0,0,1.94-.92,4.38,4.38,0,0,0-.33-2.17,7.06,7.06,0,0,1-.21-1.33,1.17,1.17,0,0,0,.9-.14,1.83,1.83,0,0,0,.57-1.5,9.07,9.07,0,0,0-.21-2.06l.26.14a2.11,2.11,0,0,0,.9.17A5.24,5.24,0,0,1,55.54,74.24ZM42.44,69l-3.29.24-1.1.08a5,5,0,0,1-.95,0,1.59,1.59,0,0,1-1-.38.76.76,0,0,1-.2-.92c.06-.1.17-.18.24-.28a.58.58,0,0,0,.05-.14,7.58,7.58,0,0,0,5.33.09,1,1,0,0,1,.48-.07.79.79,0,0,1,.52.88A2.73,2.73,0,0,1,42.44,69Zm3.61.68a10.15,10.15,0,0,0,.7-.92,6.66,6.66,0,0,0,.47.8,17.82,17.82,0,0,0,1,1.9,3.15,3.15,0,0,0,1,.84,3.62,3.62,0,0,1-3.42-1.11,6.66,6.66,0,0,0-.56-.62l-.09-.07A4,4,0,0,0,46.05,69.69Zm-3.24,4.47a3.64,3.64,0,0,1,.51-3.54,1.88,1.88,0,0,0,.89.17l.24,0a4.56,4.56,0,0,0,.86.56,2,2,0,0,1,.35.31,2.13,2.13,0,0,0-1.21.49.91.91,0,0,0-.35.35,1.15,1.15,0,0,0,0,.64,4.85,4.85,0,0,0,.52,1.81c.21.33.51.69.44,1s-.32.39-.59.45a2.86,2.86,0,0,1-.83,0C43.32,75.67,43,74.92,42.81,74.16Zm4.68,6.64a.76.76,0,0,0-.65.51,5.23,5.23,0,0,0-.06.57.7.7,0,0,1-.83.53.65.65,0,0,1-.45-.24,1.66,1.66,0,0,1-.19-.43,2.18,2.18,0,0,0-1.31-1,3.59,3.59,0,0,0-.35-.12c0-.12,0-.23,0-.35a2.24,2.24,0,0,0,0-.51,4.64,4.64,0,0,1,3.47.59,3.31,3.31,0,0,0,.82.45h0A1.66,1.66,0,0,0,47.49,80.8Zm6.23-4a.52.52,0,0,1-.23.21.76.76,0,0,1-.75-.35.87.87,0,0,1-.1-.74,4.32,4.32,0,0,1,.3-.61,2.43,2.43,0,0,0,.27-1.08,1.12,1.12,0,0,0-.2-.73c-.17-.22-.52-.38-.72-.26a1.86,1.86,0,0,1,0,1.29c-.16.44-.53.81-.46,1.33a5.3,5.3,0,0,0,.28.82,3.43,3.43,0,0,0,.35.9,1.23,1.23,0,0,0,.26.25.77.77,0,0,0-.08.27,3.52,3.52,0,0,0,.22,1.06,2.1,2.1,0,0,1-.22,2.12,2,2,0,0,1-1.92.16,8.84,8.84,0,0,1-2-1.08,2.57,2.57,0,0,1-1-1,1.62,1.62,0,0,1-.06-.92,15.16,15.16,0,0,0,0-3.16,1.58,1.58,0,0,0-.38-1c-.29-.29-.85-.31-.87,0a.74.74,0,0,0,.1.37,5.5,5.5,0,0,1,.32,3.55,2.84,2.84,0,0,0-.14.67,1.48,1.48,0,0,0,.05.35,1.32,1.32,0,0,0-.2-.12,5,5,0,0,0-2.3-.54c0-.07,0-.13-.05-.2-.08-.33-.18-.66-.29-1a3,3,0,0,0,.52,0,1.36,1.36,0,0,0,.93-.25,1.08,1.08,0,0,0,.16-1A14.44,14.44,0,0,0,45,74.48,1.71,1.71,0,0,1,45,72.94a1.42,1.42,0,0,1,.51-.4,1.53,1.53,0,0,1,.69-.23l.2.21a2.91,2.91,0,0,0,2.07.71,1.78,1.78,0,0,0,.53-.11,15.49,15.49,0,0,0,.55,5.47c-.32,0-.49.31-.36.63a1.37,1.37,0,0,0,.79.7,3.14,3.14,0,0,0,1,.14A1.39,1.39,0,0,0,51.6,80a.38.38,0,0,0,.22-.45c-.12-.39-.68-.52-1.06-.76a2.2,2.2,0,0,1-.87-1.65A12.09,12.09,0,0,1,49.82,74a5.31,5.31,0,0,0,0-1.38,3.43,3.43,0,0,0,.81.2,3.32,3.32,0,0,0,2-.4.4.4,0,0,1,.59.22,3.71,3.71,0,0,0,.67,1.19,1.53,1.53,0,0,0,.07.4A3,3,0,0,1,53.72,76.82Z"/><path class="bq" d="M38,72.83l0,0h0S38,72.84,38,72.83Z"/><path class="br" d="M55.79,70.34c-.83-3.42,1.14-9.54.19-9.49,0,0-4.07,3.87-7.07,4.83s-6.78.77-7.85.19-3.94-2-6.11-.48S29.84,77.2,36.9,80.47c.79,0,1.58-.16,1.5-1.11a13.76,13.76,0,0,0-.33-1.72,8.18,8.18,0,0,1-3.73-8.1c.78-6,2.86-2,5.3-1.92s8.4,1.92,15.82-4.33a13.25,13.25,0,0,0-1.22,7.19c.38,4.38,1,9.44-2.54,12.17s-4.54.85-4.35,2.16,4.57,2.42,6.9-1.79A18.38,18.38,0,0,0,55.79,70.34Z"/><path class="bs" d="M33.22,68.21a1.16,1.16,0,0,0,1.38-.37,1.57,1.57,0,0,0,.13-1.5,3.27,3.27,0,0,0-.87-.22,1.09,1.09,0,0,0-.82.25,1.25,1.25,0,0,0-.29.45,1.3,1.3,0,0,0-.09.39A1.08,1.08,0,0,0,33.22,68.21Z"/><path class="bt" d="M35,66.74a1.62,1.62,0,0,0-.46.22,2.11,2.11,0,0,0-.39.4.81.81,0,0,0-.16.32.62.62,0,0,0,.47.65,1.47,1.47,0,0,0,.85-.08c.38-.13.81-.36.85-.77a.71.71,0,0,0-.38-.67A1.05,1.05,0,0,0,35,66.74Z"/><path class="bu" d="M32.48,68.14a.8.8,0,0,0-.19,1,1.24,1.24,0,0,0,.48.4,1.33,1.33,0,0,0,1,.13.73.73,0,0,0,.5-.82c-.06-.26-.29-.46-.38-.71C33.43,68,32.87,67.84,32.48,68.14Z"/><path class="bv" d="M33.76,69.16a1.15,1.15,0,0,0,1.25.55.84.84,0,0,0,.66-1.06.77.77,0,0,0-.22-.31,1.19,1.19,0,0,0-1.13-.07c-.23.08-.47.23-.49.47S33.73,69.07,33.76,69.16Z"/><path class="bw" d="M34,70.17l-.66-.48a1.7,1.7,0,0,0-.93-.41.85.85,0,0,0-.79.91,1.11,1.11,0,0,0,.46.75,1.57,1.57,0,0,0,.88.34.87.87,0,0,0,.55-.1.84.84,0,0,0,.38-.7C33.94,70.2,34.27,70.33,34,70.17Z"/><path class="bx" d="M33.44,70.88a1,1,0,0,0,1.11.44,1.25,1.25,0,0,0,.44-.13,1,1,0,0,0,.36-1.28.45.45,0,0,0-.2-.23.67.67,0,0,0-.37-.08,1.72,1.72,0,0,0-1,.28A.87.87,0,0,0,33.44,70.88Z"/><path class="by" d="M33.48,72.52a1,1,0,0,1,.05-1,1.2,1.2,0,0,1,1-.35,1.25,1.25,0,0,1,.61.18.56.56,0,0,1,.3.51.91.91,0,0,1,0,.37c-.14.36-.64.46-1,.55A1.11,1.11,0,0,1,33.48,72.52Z"/><path class="bz" d="M33.47,72c-.2-.19-.36-.41-.56-.6A1.05,1.05,0,0,0,32.2,71a.93.93,0,0,0-.84,1.12,1.12,1.12,0,0,0,.23.35,1.64,1.64,0,0,0,1.22.76,1.09,1.09,0,0,0,.65-.34.66.66,0,0,0,.21-.71A1.1,1.1,0,0,0,33.47,72Z"/><path class="ca" d="M31.74,73.29a.9.9,0,0,0-.4.74.94.94,0,0,0,.62.71,2.54,2.54,0,0,0,2.25-.06.37.37,0,0,0,.21-.18.41.41,0,0,0,0-.29,1,1,0,0,0-.38-.6,2.88,2.88,0,0,0-.38-.22A2.28,2.28,0,0,0,32.35,73,1.33,1.33,0,0,0,31.74,73.29Z"/><path class="cb" d="M35.88,73.72a.78.78,0,0,1-.2.53,1,1,0,0,1-.47.25,3.43,3.43,0,0,1-1.15.15,1,1,0,0,1-.85-.39,1,1,0,0,1,.31-1.08,1.68,1.68,0,0,1,1.4-.53A1.12,1.12,0,0,1,35.88,73.72Z"/><path class="cc" d="M31.46,75.83a.88.88,0,0,0,.46.78,2.57,2.57,0,0,0,2.94,0,.73.73,0,0,0,.3-.35.88.88,0,0,0-.13-.68,1.61,1.61,0,0,0-.53-.65,1.3,1.3,0,0,0-.39-.14,2.78,2.78,0,0,0-2.28.52A.87.87,0,0,0,31.46,75.83Z"/><path class="cd" d="M36.49,75.68a1,1,0,0,0-.14-.67.92.92,0,0,0-.77-.42,2.07,2.07,0,0,0-.88.21c-.37.16-.76.42-.82.82a.9.9,0,0,0,.37.8,1.6,1.6,0,0,0,.85.28,1.26,1.26,0,0,0,1.3-.59A1,1,0,0,0,36.49,75.68Z"/><path class="ce" d="M36.48,78.29a1.62,1.62,0,0,1-1.16-.66.94.94,0,0,1-.2-.29.81.81,0,0,1,.3-.94,1.76,1.76,0,0,1,1-.3,2.31,2.31,0,0,1,1,.15,1.17,1.17,0,0,1,.67.8,1.11,1.11,0,0,1-.4,1,1.81,1.81,0,0,1-1,.37C36.38,78.43,36.54,78.62,36.48,78.29Z"/><path class="cf" d="M33.66,79.83a3,3,0,0,0,1.73-.31A2.22,2.22,0,0,0,36.47,78a.63.63,0,0,0-.11-.58,1.33,1.33,0,0,0-.31-.18c-.21-.11-.37-.31-.57-.44a2,2,0,0,0-.87-.23,3.76,3.76,0,0,0-.58,0,2,2,0,0,0-1.76,1.27,1.59,1.59,0,0,0,.87,1.94A2.18,2.18,0,0,0,33.66,79.83Z"/><path class="cg" d="M38.92,77.1a1.36,1.36,0,0,1,.39.76,1.07,1.07,0,0,1-.21,1,1.26,1.26,0,0,1-.65.27,1.69,1.69,0,0,1-.92,0,1.05,1.05,0,0,1-.62-1,1.37,1.37,0,0,1,.63-1A1.14,1.14,0,0,1,38.92,77.1Z"/><path class="ch" d="M37.63,80.51a3.82,3.82,0,0,0-.1,1.3,1.21,1.21,0,0,0,.24.61.58.58,0,0,0,1-.16c.19-.45-.26-1.35-.15-1.93.14-.73.64-.5.55-1.24,0-.38-.58-.27-.71-.22C38,79.08,37.77,79.82,37.63,80.51Z"/><path class="ci" d="M38.25,80.12a1.48,1.48,0,0,0-1.2-1.46,2.1,2.1,0,0,0-1.84.67,2.32,2.32,0,0,0-.39.54,1.58,1.58,0,0,0,.67,2,1.82,1.82,0,0,0,1.3,0A2.21,2.21,0,0,0,37.94,81,1.33,1.33,0,0,0,38.25,80.12Z"/><path class="cj" d="M38.19,79.65c-.08-.29-.28-.39-.55-.51a7.8,7.8,0,0,1-2-1.26,5.29,5.29,0,0,1-1.93-3.23,14.43,14.43,0,0,1-.27-2,12.81,12.81,0,0,1,.22-3,16.87,16.87,0,0,1,1-3.18s.11-.09.12-.12a.8.8,0,0,1-.16-.08,12.14,12.14,0,0,0-1.06,9,6.13,6.13,0,0,0,.62,1.55A6.33,6.33,0,0,0,36.56,79c.41.24,1.53.66,1.66.73Z"/><path class="ck" d="M44,89.18a9.34,9.34,0,0,0,.38,1.7c.25.53.86,1,1.38.71a1.61,1.61,0,0,0,.66-1l1-2.78a7.91,7.91,0,0,0,.45-1.65,3.85,3.85,0,0,0-.22-1.75,1.37,1.37,0,0,0-.29-.5,1.53,1.53,0,0,0-.65-.32,3.42,3.42,0,0,0-1.19-.16,2.54,2.54,0,0,0-1.9,1.13,3,3,0,0,0-.43,2.23C43.29,87.64,43.75,88.37,44,89.18Z"/><path class="cl" d="M56.29,64.13a1,1,0,0,0-.76-.24,1.86,1.86,0,0,0-.75.29,1.56,1.56,0,0,0-.66.73.82.82,0,0,0,.24.93,1,1,0,0,0,.54.14,1.74,1.74,0,0,0,1.37-.47A1,1,0,0,0,56.29,64.13Z"/><path class="cm" d="M52.83,66.36a.78.78,0,0,0,.12.32,1.08,1.08,0,0,0,.86.44,1.51,1.51,0,0,0,.91-.3,1,1,0,0,0,.37-.42.54.54,0,0,0,0-.55.75.75,0,0,0-.17-.14,1.52,1.52,0,0,0-1.65,0A.76.76,0,0,0,52.83,66.36Z"/><path class="cn" d="M55.83,65.76a1.34,1.34,0,0,0-1.43.74.74.74,0,0,0,0,.36.76.76,0,0,0,.55.58,1.31,1.31,0,0,0,.8-.08,1.21,1.21,0,0,0,.84-.76.74.74,0,0,0,0-.39A.86.86,0,0,0,55.83,65.76Z"/><path class="co" d="M53.05,68a1,1,0,0,0,.11.48,1.06,1.06,0,0,0,.72.46.85.85,0,0,0,.65-.07.92.92,0,0,0,.35-.57,1,1,0,0,0-.2-1,1.13,1.13,0,0,0-.64-.23,1,1,0,0,0-.73.15A.87.87,0,0,0,53.05,68Z"/><path class="cp" d="M55,67.3a1.18,1.18,0,0,0-.89,1.09.69.69,0,0,0,.08.4.66.66,0,0,0,.5.3,1.41,1.41,0,0,0,.58-.09,1.79,1.79,0,0,0,.91-.53.8.8,0,0,0-.75-1.35,2.46,2.46,0,0,0-.86.34C54.4,67.55,55.18,67.26,55,67.3Z"/><path class="cq" d="M54.45,70.27a.82.82,0,0,0,.11-.31,1.36,1.36,0,0,0-.36-1.12.84.84,0,0,0-1,0,.86.86,0,0,0-.25,1,1.21,1.21,0,0,0,.22.32,1.13,1.13,0,0,0,.63.38A.65.65,0,0,0,54.45,70.27Z"/><path class="cr" d="M55,71a1.24,1.24,0,0,0,1.07-.33,1.1,1.1,0,0,0,.26-1.11,1,1,0,0,0-1.3-.6,1.19,1.19,0,0,0-.33.22,1.37,1.37,0,0,0-.45.72.9.9,0,0,0,.2.83A1,1,0,0,0,55,71Z"/><path class="cs" d="M53.45,70.72a.77.77,0,0,0,.07.9,2.28,2.28,0,0,0,.33.29.87.87,0,0,0,.5.2.56.56,0,0,0,.46-.31,1.42,1.42,0,0,0,.15-.58.5.5,0,0,0,0-.21.36.36,0,0,0-.14-.16,1.51,1.51,0,0,0-.67-.36A.72.72,0,0,0,53.45,70.72Z"/><path class="ct" d="M55.41,70.36a1.32,1.32,0,0,0-.82,1.19,1.41,1.41,0,0,0,.76,1.27,1,1,0,0,0,.8.05,1.18,1.18,0,0,0,.54-.62,1.55,1.55,0,0,0,.11-.88,1.22,1.22,0,0,0-.86-.91C55.52,70.36,55.66,70,55.41,70.36Z"/><path class="cu" d="M53.53,72.52a1.34,1.34,0,0,0,.21,1,.93.93,0,0,0,.86.4.78.78,0,0,0,.62-.49.84.84,0,0,0-.1-.81c0-.08-.12-.15-.18-.23A4,4,0,0,0,54.7,72a.69.69,0,0,0-1,0A.93.93,0,0,0,53.53,72.52Z"/><path class="cv" d="M55.58,74.44a.92.92,0,0,0-.34-.72,1.11,1.11,0,0,0-.76-.23.79.79,0,0,0-.6.27.91.91,0,0,0-.13.46,1.36,1.36,0,0,0,1.12,1.32.81.81,0,0,0,.46-.06.83.83,0,0,0,.39-.75C55.73,74.43,55.56,74.74,55.58,74.44Z"/><path class="cw" d="M56.14,72.8a1.49,1.49,0,0,0-.85,1.32.79.79,0,0,0,.15.49.76.76,0,0,0,.57.24,1.26,1.26,0,0,0,1.09-.54A1.05,1.05,0,0,0,57,73.1,1,1,0,0,0,56.14,72.8Z"/><path class="cx" d="M54.51,76.8a.86.86,0,0,0,.83-.56,1.22,1.22,0,0,0-.07-.65,1.08,1.08,0,0,0-.6-.71.72.72,0,0,0-.75.27,1.31,1.31,0,0,0-.23.82,1,1,0,0,0,.2.6A.79.79,0,0,0,54.51,76.8Z"/><path class="cy" d="M57.33,75.12a.85.85,0,0,0-.69-.37,1.4,1.4,0,0,0-.75.25,1.43,1.43,0,0,0-.63.8.92.92,0,0,0,.31,1,1,1,0,0,0,.39.14,1.34,1.34,0,0,0,1.1-.33,1.26,1.26,0,0,0,.39-1.09A.81.81,0,0,0,57.33,75.12Z"/><path class="cz" d="M55.3,77.12a.63.63,0,0,0,0-.23.75.75,0,0,0-.39-.43,1,1,0,0,0-1.36.32,1,1,0,0,0,.34,1.38.93.93,0,0,0,.86,0,1.13,1.13,0,0,0,.54-.7A1.34,1.34,0,0,0,55.3,77.12Z"/><path class="da" d="M55.76,76.63a1,1,0,0,0-.39.14,1.44,1.44,0,0,0-.57.67,1.26,1.26,0,0,0,.26,1.38,1.09,1.09,0,0,0,1.37,0A1.68,1.68,0,0,0,57,77.42a.54.54,0,0,0-.05-.22.72.72,0,0,0-.32-.3A1.54,1.54,0,0,0,55.76,76.63Z"/><path class="db" d="M54.31,79.26a.87.87,0,0,0,.39-1,.92.92,0,0,0-.81-.45,1,1,0,0,0-1.14.73.84.84,0,0,0,.54.87A1.13,1.13,0,0,0,54.31,79.26Z"/><path class="dc" d="M53.87,79.59a1.32,1.32,0,0,0,.39.89,1.1,1.1,0,0,0,1,.35,1.32,1.32,0,0,0,.8-1.1,1.07,1.07,0,0,0-1-1.4.58.58,0,0,0-.32,0,.57.57,0,0,0-.26.15A1.53,1.53,0,0,0,53.87,79.59Z"/><path class="dd" d="M51.82,81a1,1,0,0,0,1,.48,1.44,1.44,0,0,0,1.31-1.16.79.79,0,0,0,0-.34.94.94,0,0,0-.79-.6,1.41,1.41,0,0,0-1.56,1.16A.89.89,0,0,0,51.82,81Z"/><path class="de" d="M54,82.65a.92.92,0,0,0,1.11,0,1.41,1.41,0,0,0,.56-1,2.67,2.67,0,0,0-.21-1.21c-.13-.34-.35-.7-.7-.74a.8.8,0,0,0-.56.21,2,2,0,0,0-.41,2.47A1.33,1.33,0,0,0,54,82.65Z"/><path class="df" d="M53.45,81.41a1.66,1.66,0,0,0-1.71-.23,1.34,1.34,0,0,0-.67.66.94.94,0,0,0,1,1.33,1.91,1.91,0,0,0,.9-.36,1.2,1.2,0,0,0,.63-1.1C53.51,81.41,53.69,81.6,53.45,81.41Z"/><path class="dg" d="M54.38,82a1.37,1.37,0,0,0-1.34.36,1.79,1.79,0,0,0-.49,1.37,1.36,1.36,0,0,0,.15.59,1,1,0,0,0,.85.48,1.45,1.45,0,0,0,.92-.34,1,1,0,0,0,.3-.35,1,1,0,0,0,.09-.38,2,2,0,0,0-.08-1.16C54.61,82.18,54.71,81.77,54.38,82Z"/><path class="dh" d="M51.59,82.4a1.67,1.67,0,0,0-.63,0,1.14,1.14,0,0,0-.82,1.19.74.74,0,0,0,.08.29.87.87,0,0,0,.71.35,1.31,1.31,0,0,0,1.35-.74.84.84,0,0,0-.33-1A1.08,1.08,0,0,0,51.59,82.4Z"/><path class="di" d="M52.84,83.67a1.91,1.91,0,0,0-1.75.44,2.28,2.28,0,0,0-.87,1.16,1.2,1.2,0,0,0,.46,1.31,1.23,1.23,0,0,0,.68.12A2,2,0,0,0,53,85.89a1.7,1.7,0,0,0,.11-1.8.49.49,0,0,0-.14-.18C52.73,83.73,53.08,83.76,52.84,83.67Z"/><path class="dj" d="M50.53,83.84a1.4,1.4,0,0,0-.05-.5,1.06,1.06,0,0,0-1.08-.64,1.15,1.15,0,0,0-1,.81.93.93,0,0,0,.47,1.09,1.44,1.44,0,0,0,.62.09,1.13,1.13,0,0,0,.79-.24A.89.89,0,0,0,50.53,83.84Z"/><path class="dk" d="M51,86.24a1.24,1.24,0,0,0,.07-1,1.17,1.17,0,0,0-.74-.7,1.74,1.74,0,0,0-1.1.1,2.17,2.17,0,0,0-1.13.77,1.14,1.14,0,0,0,0,1.34,1.45,1.45,0,0,0,1.22.34A2,2,0,0,0,51,86.24Z"/><path class="dl" d="M49.42,83.66a1.82,1.82,0,0,0-2.13-1,1,1,0,0,0-.76.76,1.16,1.16,0,0,0,.65,1,1.86,1.86,0,0,0,1.15.28,1.18,1.18,0,0,0,1-.63C49.45,83.71,49.75,83.89,49.42,83.66Z"/><path class="dm" d="M48.64,85.24a2.17,2.17,0,0,0-.69-1.8A2,2,0,0,0,46.12,83a1.05,1.05,0,0,0-.44.24,1,1,0,0,0-.27.76,1.58,1.58,0,0,0,.29.79,2.27,2.27,0,0,0,2.11,1,1.14,1.14,0,0,0,.44-.14C48.59,85.48,48.6,85.64,48.64,85.24Z"/><path class="cj" d="M54.46,80.5c.74-1.65,2.1-3.75.72-9.15a14,14,0,0,1-.44-3.46,10.07,10.07,0,0,1,.25-2.1,7.24,7.24,0,0,0,.09-3.25c-.07-.25-.21.11-.45.19.64,1.25,0,2.76-.16,4.13-.39,3.1,1.27,6.24.92,9.37a13,13,0,0,1-1.74,5c-.33.62-1.42,3.06-3.68,3.23a2.31,2.31,0,0,1-1.08,0c-.1,0-.91-.53-.92-.52-.26.24.06.65.38.81a3.7,3.7,0,0,0,3.9-.79A9.72,9.72,0,0,0,54.46,80.5Z"/><path class="dn" d="M54.81,63a.58.58,0,0,1,.27-.46c.39-.34.88-.71,1.37-.53A1,1,0,0,1,57,63.09a1.38,1.38,0,0,1-.8,1,1.1,1.1,0,0,1-1.08,0,1,1,0,0,1-.45-.82C54.68,62.92,54.6,63.24,54.81,63Z"/><path class="do" d="M34.84,64.65a.33.33,0,0,1,0-.17.29.29,0,0,1,.08-.14A1.48,1.48,0,0,1,36,64a.65.65,0,0,1,.47.11.57.57,0,0,1,.16.36.66.66,0,0,1-.06.48c-.16.25-.51.24-.79.28a1.64,1.64,0,0,1-.38,0A.78.78,0,0,1,34.84,64.65Z"/><path class="dp" d="M37.14,65.11a.63.63,0,0,1-.84-.4.32.32,0,0,1,0-.17.44.44,0,0,1,.16-.22A1.45,1.45,0,0,1,37.66,64a.62.62,0,0,1,.31.14.51.51,0,0,1,.07.59.94.94,0,0,1-.48.4C37.3,65.24,37.4,65.23,37.14,65.11Z"/><path class="dq" d="M38.79,65.82a1.74,1.74,0,0,1-.74-.27.61.61,0,0,1-.26-.69c.11-.3.48-.38.79-.41a2.37,2.37,0,0,1,1.24.13.61.61,0,0,1,.36.39.65.65,0,0,1-.28.58A1,1,0,0,1,38.79,65.82Z"/><path class="dr" d="M40,66.12a.52.52,0,0,1,.12-.94,2,2,0,0,1,.7-.09.94.94,0,0,1,.77.28.62.62,0,0,1-.1.75c-.36.37-1.23.32-1.33.1C40.15,66.22,40.22,66.34,40,66.12Z"/><path class="ds" d="M43.31,65.69a.69.69,0,0,1,.23.22.6.6,0,0,1-.27.76,1.69,1.69,0,0,1-.86.15,1.67,1.67,0,0,1-.77-.09.61.61,0,0,1-.4-.61c0-.32.39-.47.69-.54A1.83,1.83,0,0,1,43.31,65.69Z"/><path class="dt" d="M43.48,66.5c.06.21.3.32.51.38a3.55,3.55,0,0,0,2.21-.12.63.63,0,0,0,.4-.31.6.6,0,0,0-.29-.69,1.94,1.94,0,0,0-1-.24,1.89,1.89,0,0,0-.41,0,2.74,2.74,0,0,0-.88.28,1.36,1.36,0,0,0-.4.25A.47.47,0,0,0,43.48,66.5Z"/><path class="du" d="M47,66.71a1.6,1.6,0,0,0,.58-.07.59.59,0,0,0,.39-.42.62.62,0,0,0-.37-.61,1.65,1.65,0,0,0-.73-.11,1.52,1.52,0,0,0-.6.11.58.58,0,0,0-.34.47.63.63,0,0,0,.39.54A1.75,1.75,0,0,0,47,66.71Z"/><path class="dv" d="M48.41,66.17a3.35,3.35,0,0,0,1.29-.23.93.93,0,0,0,.38-.23.43.43,0,0,0-.16-.74,1,1,0,0,0-.45-.06,3.62,3.62,0,0,0-1.06.28,1,1,0,0,0-.62.57.25.25,0,0,0,.05.25.26.26,0,0,0,.11.07C48.27,66.22,48.07,66.17,48.41,66.17Z"/><path class="dw" d="M50.76,65.34c.14-.1.29-.16.43-.25a.66.66,0,0,0,.32-.36.38.38,0,0,0-.14-.45.6.6,0,0,0-.23-.06,1.24,1.24,0,0,0-.88.23.68.68,0,0,0-.17.86.34.34,0,0,0,.12.12.42.42,0,0,0,.27,0C50.74,65.44,50.55,65.48,50.76,65.34Z"/><path class="dx" d="M51.56,64.8l.76-.27a1.47,1.47,0,0,0,.5-.25.54.54,0,0,0,.18-.52.52.52,0,0,0-.38-.34.93.93,0,0,0-.52,0,1.12,1.12,0,0,0-.72.57.46.46,0,0,0,.08.54.61.61,0,0,0,.4.09C52,64.67,51.44,64.84,51.56,64.8Z"/><path class="dy" d="M52.69,63.8A1.28,1.28,0,0,0,54,63.2a.47.47,0,0,0,.12-.34.43.43,0,0,0-.32-.32.87.87,0,0,0-1,.34,1.42,1.42,0,0,0-.17.35.51.51,0,0,0,0,.48C52.7,63.88,52.5,63.87,52.69,63.8Z"/><path class="dz" d="M53.9,62.83A2.32,2.32,0,0,0,55,62.6a1.09,1.09,0,0,0,.48-.42.53.53,0,0,0-.06-.62.61.61,0,0,0-.43-.15,1.27,1.27,0,0,0-1.12.61.59.59,0,0,0,0,.68C54,62.92,53.64,62.9,53.9,62.83Z"/><path class="ea" d="M55.34,62.07a1.55,1.55,0,0,0,1.37-.38,1,1,0,0,0,.22-.31.73.73,0,0,0-.24-.77,1,1,0,0,0-.79-.21,1.21,1.21,0,0,0-1,.88A.82.82,0,0,0,55,62C55.17,62.19,55.12,62.21,55.34,62.07Z"/><path class="eb" d="M33.94,65.49a1.2,1.2,0,0,0-.1.47.74.74,0,0,0,.12.38.75.75,0,0,0,.2.15,1.16,1.16,0,0,0,1,0,1.45,1.45,0,0,0,.72-.76.59.59,0,0,0,0-.53.64.64,0,0,0-.33-.25,1.55,1.55,0,0,0-.95-.07A1.15,1.15,0,0,0,33.94,65.49Z"/><path class="ec" d="M37,66.7a1.09,1.09,0,0,0,.28-.58.89.89,0,0,0-.1-.68.74.74,0,0,0-.62-.3,1.42,1.42,0,0,0-.66.21,1.46,1.46,0,0,0-.61.62.8.8,0,0,0,.06.84.76.76,0,0,0,.6.28,1.51,1.51,0,0,0,.66-.14A1.24,1.24,0,0,0,37,66.7Z"/><path class="ed" d="M38.34,65.79a1.39,1.39,0,0,0-1.18,0,1.17,1.17,0,0,0-.59,1,1,1,0,0,0,.68.94,1.16,1.16,0,0,0,.64,0,1.42,1.42,0,0,0,.93-.69A1,1,0,0,0,38.65,66,1,1,0,0,0,38.34,65.79Z"/><path class="ee" d="M39.35,68.36a.92.92,0,0,0,.4.07,1.73,1.73,0,0,0,.75-.09,1.52,1.52,0,0,0,.61-.57,1.27,1.27,0,0,0,.12-.23.85.85,0,0,0-.16-.78,1.33,1.33,0,0,0-.69-.44,1.49,1.49,0,0,0-1.17.09,1,1,0,0,0-.54,1,1.36,1.36,0,0,0,.48.8A.66.66,0,0,0,39.35,68.36Z"/><path class="ef" d="M42.8,66.59a2.06,2.06,0,0,0-1.41.19,1.14,1.14,0,0,0-.46.69A1,1,0,0,0,41,68a1,1,0,0,0,.66.55,2,2,0,0,0,.87,0,1.29,1.29,0,0,0,1.06-.7,1.37,1.37,0,0,0,.05-.49.71.71,0,0,0-.79-.77Z"/><path class="eg" d="M45.87,67a1.52,1.52,0,0,0-.88-.26A1.8,1.8,0,0,0,43.9,67a1.08,1.08,0,0,0-.5,1,1,1,0,0,0,.6.78,1.66,1.66,0,0,0,.55.07A1.88,1.88,0,0,0,46,68.53a1,1,0,0,0-.1-1.51Z"/><path class="eh" d="M47.88,66.7a.8.8,0,0,0-.3-.09,1.53,1.53,0,0,0-1,.15,1.11,1.11,0,0,0-.56.85.89.89,0,0,0,.53.87,1.3,1.3,0,0,0,.44.06,1.84,1.84,0,0,0,.92-.25,1.14,1.14,0,0,0,.54-.79.37.37,0,0,0,0-.18,1,1,0,0,0-.08-.14A1.38,1.38,0,0,0,47.88,66.7Z"/><path class="ei" d="M49.74,66.13a1.47,1.47,0,0,0-1,.18,1.08,1.08,0,0,0-.5.91.57.57,0,0,0,0,.22.73.73,0,0,0,.7.32,1.51,1.51,0,0,0,1.4-.69.67.67,0,0,0,.06-.5A.8.8,0,0,0,49.74,66.13Z"/><path class="ej" d="M51.66,65.21a1.57,1.57,0,0,0-1.16.25.87.87,0,0,0-.23,1.11.43.43,0,0,0,.36.18,1.8,1.8,0,0,0,1.1-.15.93.93,0,0,0,.51-.94.42.42,0,0,0-.08-.21A.7.7,0,0,0,51.66,65.21Z"/><path class="ek" d="M52.07,65.84a1,1,0,0,0,1.12-.3,1.16,1.16,0,0,0,.18-.55.53.53,0,0,0-.07-.39.54.54,0,0,0-.49-.18,1.24,1.24,0,0,0-.77.27.86.86,0,0,0-.32.74.47.47,0,0,0,.16.33A.77.77,0,0,0,52.07,65.84Z"/><path class="el" d="M54.29,65a1.19,1.19,0,0,0,.6-1.13.76.76,0,0,0-.06-.26c-.12-.2-.41-.22-.64-.2a2.12,2.12,0,0,0-.81.25,1,1,0,0,0-.46.69.68.68,0,0,0,.39.72.91.91,0,0,0,.4,0A1.62,1.62,0,0,0,54.29,65Z"/><path class="cj" d="M42.91,67.16a15,15,0,0,0,4-.07,17.31,17.31,0,0,0,3.76-1.32A15.48,15.48,0,0,0,54,63.83l.15-.12a2.79,2.79,0,0,0,1.09-1.49.94.94,0,0,0-.42.29A15,15,0,0,1,48.87,66a17.26,17.26,0,0,1-8.12.41c-.69-.13-1.38-.3-2.06-.5a13.89,13.89,0,0,0-2-.62,2.29,2.29,0,0,0-1.44.2,9.56,9.56,0,0,1,3.88.92,14.31,14.31,0,0,0,3.76.73Z"/><path class="em" d="M46.56,21.09c0,.36-.73.66-1.63.66s-1.64-.3-1.64-.66.73-.66,1.64-.66S46.56,20.73,46.56,21.09Z"/></g></svg>